<svg width="20" height="20" viewBox="0 0 50 50" fill="none" xmlns="http://www.w3.org/2000/svg">
<path fill-rule="evenodd" clip-rule="evenodd" d="M0 5.35714C0 3.93634 0.564412 2.57373 1.56907 1.56907C2.57373 0.564412 3.93634 0 5.35714 0H16.0714C17.4922 0 18.8548 0.564412 19.8595 1.56907C20.8642 2.57373 21.4286 3.93634 21.4286 5.35714V16.0714C21.4286 17.4922 20.8642 18.8548 19.8595 19.8595C18.8548 20.8642 17.4922 21.4286 16.0714 21.4286H5.35714C3.93634 21.4286 2.57373 20.8642 1.56907 19.8595C0.564412 18.8548 0 17.4922 0 16.0714V5.35714ZM5.35714 3.57143C4.88354 3.57143 4.42934 3.75957 4.09445 4.09445C3.75957 4.42934 3.57143 4.88354 3.57143 5.35714V16.0714C3.57143 16.545 3.75957 16.9992 4.09445 17.3341C4.42934 17.669 4.88354 17.8571 5.35714 17.8571H16.0714C16.545 17.8571 16.9992 17.669 17.3341 17.3341C17.669 16.9992 17.8571 16.545 17.8571 16.0714V5.35714C17.8571 4.88354 17.669 4.42934 17.3341 4.09445C16.9992 3.75957 16.545 3.57143 16.0714 3.57143H5.35714ZM28.5714 5.35714C28.5714 3.93634 29.1358 2.57373 30.1405 1.56907C31.1452 0.564412 32.5078 0 33.9286 0H44.6429C46.0637 0 47.4263 0.564412 48.4309 1.56907C49.4356 2.57373 50 3.93634 50 5.35714V16.0714C50 17.4922 49.4356 18.8548 48.4309 19.8595C47.4263 20.8642 46.0637 21.4286 44.6429 21.4286H33.9286C32.5078 21.4286 31.1452 20.8642 30.1405 19.8595C29.1358 18.8548 28.5714 17.4922 28.5714 16.0714V5.35714ZM33.9286 3.57143C33.455 3.57143 33.0008 3.75957 32.6659 4.09445C32.331 4.42934 32.1429 4.88354 32.1429 5.35714V16.0714C32.1429 16.545 32.331 16.9992 32.6659 17.3341C33.0008 17.669 33.455 17.8571 33.9286 17.8571H44.6429C45.1165 17.8571 45.5707 17.669 45.9055 17.3341C46.2404 16.9992 46.4286 16.545 46.4286 16.0714V5.35714C46.4286 4.88354 46.2404 4.42934 45.9055 4.09445C45.5707 3.75957 45.1165 3.57143 44.6429 3.57143H33.9286ZM0 33.9286C0 32.5078 0.564412 31.1452 1.56907 30.1405C2.57373 29.1358 3.93634 28.5714 5.35714 28.5714H16.0714C17.4922 28.5714 18.8548 29.1358 19.8595 30.1405C20.8642 31.1452 21.4286 32.5078 21.4286 33.9286V44.6429C21.4286 46.0637 20.8642 47.4263 19.8595 48.4309C18.8548 49.4356 17.4922 50 16.0714 50H5.35714C3.93634 50 2.57373 49.4356 1.56907 48.4309C0.564412 47.4263 0 46.0637 0 44.6429V33.9286ZM5.35714 32.1429C4.88354 32.1429 4.42934 32.331 4.09445 32.6659C3.75957 33.0008 3.57143 33.455 3.57143 33.9286V44.6429C3.57143 45.1165 3.75957 45.5707 4.09445 45.9055C4.42934 46.2404 4.88354 46.4286 5.35714 46.4286H16.0714C16.545 46.4286 16.9992 46.2404 17.3341 45.9055C17.669 45.5707 17.8571 45.1165 17.8571 44.6429V33.9286C17.8571 33.455 17.669 33.0008 17.3341 32.6659C16.9992 32.331 16.545 32.1429 16.0714 32.1429H5.35714ZM28.5714 33.9286C28.5714 32.5078 29.1358 31.1452 30.1405 30.1405C31.1452 29.1358 32.5078 28.5714 33.9286 28.5714H44.6429C46.0637 28.5714 47.4263 29.1358 48.4309 30.1405C49.4356 31.1452 50 32.5078 50 33.9286V44.6429C50 46.0637 49.4356 47.4263 48.4309 48.4309C47.4263 49.4356 46.0637 50 44.6429 50H33.9286C32.5078 50 31.1452 49.4356 30.1405 48.4309C29.1358 47.4263 28.5714 46.0637 28.5714 44.6429V33.9286ZM33.9286 32.1429C33.455 32.1429 33.0008 32.331 32.6659 32.6659C32.331 33.0008 32.1429 33.455 32.1429 33.9286V44.6429C32.1429 45.1165 32.331 45.5707 32.6659 45.9055C33.0008 46.2404 33.455 46.4286 33.9286 46.4286H44.6429C45.1165 46.4286 45.5707 46.2404 45.9055 45.9055C46.2404 45.5707 46.4286 45.1165 46.4286 44.6429V33.9286C46.4286 33.455 46.2404 33.0008 45.9055 32.6659C45.5707 32.331 45.1165 32.1429 44.6429 32.1429H33.9286Z" fill="black"/>
</svg>
