<svg width="10" height="8" viewBox="0 0 10 8" fill="none" xmlns="http://www.w3.org/2000/svg">
<path d="M7.26297 7.37561H0.605247V1.58114H4.60593L5.21118 1.05437H0.605247C0.444726 1.05437 0.290779 1.10987 0.177273 1.20865C0.0637669 1.30744 0 1.44143 0 1.58114V7.37561C0 7.51532 0.0637669 7.6493 0.177273 7.74809C0.290779 7.84688 0.444726 7.90238 0.605247 7.90238H7.26297C7.42349 7.90238 7.57743 7.84688 7.69094 7.74809C7.80444 7.6493 7.86821 7.51532 7.86821 7.37561V3.42483L7.26297 3.9516V7.37561Z" fill="black"/>
<path d="M8.93642 1.01222L7.91658 0.124612C7.87132 0.0851126 7.81755 0.0537733 7.75835 0.0323901C7.69915 0.0110069 7.63568 0 7.57159 0C7.50749 0 7.44403 0.0110069 7.38483 0.0323901C7.32563 0.0537733 7.27186 0.0851126 7.2266 0.124612L3.07763 3.75669L2.74172 5.02358C2.72741 5.08499 2.72891 5.1484 2.74612 5.20924C2.76333 5.27008 2.79582 5.32685 2.84126 5.37546C2.88669 5.42407 2.94394 5.46331 3.00888 5.49036C3.07382 5.51741 3.14484 5.5316 3.21684 5.53191C3.25405 5.53548 3.2916 5.53548 3.32881 5.53191L4.79653 5.25009L8.93642 1.61274C8.9818 1.57335 9.01781 1.52655 9.04238 1.47502C9.06695 1.4235 9.0796 1.36826 9.0796 1.31248C9.0796 1.25669 9.06695 1.20146 9.04238 1.14993C9.01781 1.09841 8.9818 1.05161 8.93642 1.01222ZM4.4818 4.76283L3.3742 4.97617L3.63143 4.02008L6.7545 1.28351L7.6079 2.02625L4.4818 4.76283ZM7.94987 1.72863L7.09647 0.985882L7.56554 0.569733L8.42499 1.31775L7.94987 1.72863Z" fill="black"/>
</svg>
