<svg width="11" height="5" viewBox="0 0 11 5" fill="none" xmlns="http://www.w3.org/2000/svg">
<path d="M3.85813 0H2.16182C1.58847 8.67512e-09 1.0386 0.231269 0.633183 0.642931C0.227763 1.05459 0 1.61293 0 2.1951C0 2.77728 0.227763 3.33561 0.633183 3.74728C1.0386 4.15894 1.58847 4.39021 2.16182 4.39021H4.32364C4.66959 4.39039 5.01052 4.30627 5.31781 4.14491C5.6251 3.98356 5.88976 3.74968 6.08957 3.46292C6.28937 3.17616 6.41848 2.8449 6.46606 2.49696C6.51363 2.14903 6.47827 1.79458 6.36296 1.4634H5.76485C5.70288 1.4634 5.64235 1.47072 5.5847 1.48609C5.70623 1.70889 5.76839 1.96005 5.76503 2.21472C5.76166 2.4694 5.6929 2.71877 5.56553 2.93819C5.43816 3.15761 5.2566 3.33947 5.03879 3.46581C4.82098 3.59214 4.57448 3.65856 4.32364 3.65851H2.16182C1.77959 3.65851 1.41301 3.50433 1.14273 3.22988C0.872449 2.95544 0.720607 2.58322 0.720607 2.1951C0.720607 1.80699 0.872449 1.43476 1.14273 1.16032C1.41301 0.885881 1.77959 0.731701 2.16182 0.731701H3.26795C3.42504 0.456582 3.62465 0.209267 3.85885 0H3.85813Z" fill="black"/>
<path d="M5.76485 3.01813e-07C5.41891 -0.000183884 5.07797 0.0839359 4.77068 0.245293C4.4634 0.40665 4.19873 0.640531 3.99893 0.92729C3.79912 1.21405 3.67001 1.54531 3.62244 1.89324C3.57486 2.24118 3.61022 2.59562 3.72554 2.9268H4.51676C4.39027 2.70434 4.32368 2.45199 4.32368 2.19511C4.32367 1.93824 4.39026 1.68588 4.51675 1.46342C4.64324 1.24095 4.82517 1.05622 5.04426 0.927774C5.26335 0.799331 5.51187 0.731708 5.76485 0.731701H7.92667C8.30891 0.731701 8.67549 0.885881 8.94577 1.16032C9.21604 1.43476 9.36789 1.80699 9.36789 2.1951C9.36789 2.58322 9.21604 2.95544 8.94577 3.22989C8.67549 3.50433 8.30891 3.65851 7.92667 3.65851H6.82054C6.66376 3.93319 6.46421 4.18028 6.22964 4.39021H7.92667C8.21057 4.39021 8.49168 4.33343 8.75397 4.22311C9.01625 4.1128 9.25457 3.95111 9.45531 3.74728C9.65605 3.54344 9.81529 3.30146 9.92394 3.03513C10.0326 2.76881 10.0885 2.48337 10.0885 2.1951C10.0885 1.90684 10.0326 1.6214 9.92394 1.35507C9.81529 1.08875 9.65605 0.846765 9.45531 0.642931C9.25457 0.439097 9.01625 0.277407 8.75397 0.167093C8.49168 0.0567785 8.21057 2.97518e-07 7.92667 3.01813e-07H5.76485Z" fill="black"/>
</svg>
