<svg width="10" height="8" viewBox="0 0 10 8" fill="none" xmlns="http://www.w3.org/2000/svg">
<path d="M5 1.5H9.375V2.125H5V1.5Z" fill="black"/>
<path d="M5 5.875H9.375V6.5H5V5.875Z" fill="black"/>
<path d="M3.125 3.375H1.25C1.08429 3.37483 0.925415 3.30893 0.808241 3.19176C0.691067 3.07458 0.625165 2.91571 0.625 2.75V0.875C0.625165 0.70929 0.691067 0.550415 0.808241 0.433241C0.925415 0.316067 1.08429 0.250165 1.25 0.25H3.125C3.29071 0.250165 3.44958 0.316067 3.56676 0.433241C3.68393 0.550415 3.74983 0.70929 3.75 0.875V2.75C3.74983 2.91571 3.68393 3.07458 3.56676 3.19176C3.44958 3.30893 3.29071 3.37483 3.125 3.375ZM1.25 0.875V2.75H3.12531L3.125 0.875H1.25Z" fill="black"/>
<path d="M3.125 7.75H1.25C1.08429 7.74983 0.925415 7.68393 0.808241 7.56676C0.691067 7.44958 0.625165 7.29071 0.625 7.125V5.25C0.625165 5.08429 0.691067 4.92542 0.808241 4.80824C0.925415 4.69107 1.08429 4.62517 1.25 4.625H3.125C3.29071 4.62517 3.44958 4.69107 3.56676 4.80824C3.68393 4.92542 3.74983 5.08429 3.75 5.25V7.125C3.74983 7.29071 3.68393 7.44958 3.56676 7.56676C3.44958 7.68393 3.29071 7.74983 3.125 7.75ZM1.25 5.25V7.125H3.12531L3.125 5.25H1.25Z" fill="black"/>
</svg>
